<?xml version="1.0" encoding="UTF-8" standalone="no"?>
<!-- Creator: CorelDRAW -->

<svg
   xmlns:dc="http://purl.org/dc/elements/1.1/"
   xmlns:cc="http://creativecommons.org/ns#"
   xmlns:rdf="http://www.w3.org/1999/02/22-rdf-syntax-ns#"
   xmlns:svg="http://www.w3.org/2000/svg"
   xmlns="http://www.w3.org/2000/svg"
   xmlns:sodipodi="http://sodipodi.sourceforge.net/DTD/sodipodi-0.dtd"
   xmlns:inkscape="http://www.inkscape.org/namespaces/inkscape"
   xml:space="preserve"
   width="1000px"
   height="860px"
   style="shape-rendering:geometricPrecision; text-rendering:geometricPrecision; image-rendering:optimizeQuality; fill-rule:evenodd; clip-rule:evenodd"
   viewBox="0 0 1000 859.999"
   id="svg2"
   version="1.1"
   inkscape:version="0.91 r13725"
   sodipodi:docname="nnmap.svg"><metadata
   id="metadata31"><rdf:RDF><cc:Work
       rdf:about=""><dc:format>image/svg+xml</dc:format><dc:type
         rdf:resource="http://purl.org/dc/dcmitype/StillImage" /></cc:Work></rdf:RDF></metadata><sodipodi:namedview
   pagecolor="#ffffff"
   bordercolor="#666666"
   borderopacity="1"
   objecttolerance="10"
   gridtolerance="10"
   guidetolerance="10"
   inkscape:pageopacity="0"
   inkscape:pageshadow="2"
   inkscape:window-width="1908"
   inkscape:window-height="1002"
   id="namedview29"
   showgrid="false"
   inkscape:zoom="0.77617302"
   inkscape:cx="421.72727"
   inkscape:cy="373.88478"
   inkscape:window-x="0"
   inkscape:window-y="0"
   inkscape:window-maximized="0"
   inkscape:current-layer="svg2" />
 <defs
   id="defs6">
  <style
   type="text/css"
   id="style6">
   <![CDATA[
    .str0 {stroke:#555555;stroke-width:1.00039;stroke-linejoin:round}
    .fil0 {fill:#E0E0E0}
    .fil6 {fill:#CCCCCC}
    .fil5 {fill:#CCCCFE}
    .fil3 {fill:#CCFECC}
    .fil2 {fill:#CCFEFE}
    .fil8 {fill:#FECCCC}
    .fil4 {fill:#FECCFE}
    .fil7 {fill:#FEFECC}
    .fil1 {fill:#FEFEFE}
   ]]>
  </style>
   <style
       type="text/css"
       id="style5">
        .area {
          fill: #EFFFEF;
          fill-opacity: 1;
          fill-rule: evenodd;
          stroke: #000000;
          stroke-width: 2px;
          stroke-linecap: butt;
          stroke-linejoin: miter;
          stroke-opacity: 1;
        }
        .area:hover, .area.highlight {
          fill: #FFFF66;
        }
        
        .selected {
          fill: #CCCCFF;
        }

        .hidden {
          visibility: hidden;
        }

        text.areavals {
          font-size: 20px;
          font-style: normal;
          font-weight: normal;
          line-height: 125%;
          letter-spacing: 0px;
          word-spacing: 0px;
          fill: #000000;
          fill-opacity: 1;
          stroke: none;
          font-family: sans;
        }
        g:hover>polygon {
            fill: #FFFF66;
        }
  </style>
 </defs>
 
 <!-- Советский -->
<polygon
   transform="translate(-0.11325964,-14.077617)"
   points="853.926,511.36 853.136,515.422 850.835,515.422 846.772,516.788 845.442,523.15 846.379,523.438 847.492,524.374 847.636,525.2 849.505,528.148 849.468,529.658 848.75,531.778 847.348,534.44 847.959,537.206 849.468,539.65 853.458,540.189 854.179,540.73 854.251,542.744 853.783,543.389 849.003,545.332 839.26,544.972 839.115,543.75 836.851,538.071 833.938,533.756 829.302,537.638 824.736,543.211 822.543,543.211 805.899,536.308 800.29,534.293 794,532.856 790.296,532.282 784.466,531.86 782.496,527.788 780.627,525.702 778.254,521.784 783.503,519.16 785.625,516.788 790.008,513.696 792.31,510.351 794.142,509.13 794.395,507.872 795.114,507.586 797.055,504.531 797.343,503.81 799.068,502.264 800.326,500.36 800.578,499.784 801.01,499.46 801.082,498.742 801.513,498.31 801.297,497.484 799.357,497.412 798.96,498.094 798.312,498.058 798.062,497.915 796.804,498.92 795.295,499.063 794.827,499.316 793.425,498.742 790.44,498.561 789.147,499.028 787.888,499.244 784.653,500.827 783.035,502.011 763.982,486.016 757.404,479.831 760.279,476.058 764.592,472.068 764.342,457.796 762.004,458.156 758.41,459.306 756.18,461.032 755.138,461.39 750.825,464.914 748.596,466.1 744.21,470.341 743.241,470.666 741.982,470.738 740.867,471.492 737.02,472.033 729.615,471.817 728.788,471.348 728.142,470.234 727.171,470.487 726.992,468.868 726.381,467.97 725.444,467.718 725.372,466.962 724.654,466.568 724.33,465.381 723.396,464.518 721.132,463.261 720.232,461.246 720.413,460.132 720.269,455.889 719.406,453.626 718.327,451.9 717.392,450.965 717.321,450.14 716.098,448.952 719.62,441.905 700.677,438.994 701.109,431.804 696.831,431.624 693.81,431.014 692.553,430.87 690.179,431.267 687.266,432.884 686.188,433.206 685.756,433.242 684.893,432.488 684.284,432.344 683.888,432.74 684.321,433.565 685.398,434.86 685.506,435.939 686.836,438.096 686.657,438.312 686.08,438.24 685.938,438.528 686.584,439.102 686.548,439.282 685.684,439.391 685.506,439.892 685.72,440.791 686.404,441.332 685.684,443.092 675.254,443.066 673.312,425.224 673.023,415.942 673.21,391.842 682.163,391.842 682.45,376.948 682.808,376.23 683.528,374.934 683.312,371.554 683.564,370.69 684.14,370.152 683.816,368.21 683.6,365.228 683.816,363.574 684.249,362.459 684.534,356.348 684.893,355.7 688.524,355.628 691.186,356.6 693.162,357.068 693.162,362.674 695.787,362.64 712.36,366.558 729.687,360.159 753.162,345.635 768.332,337.582 776.384,334.06 778.47,332.658 779.872,331.507 780.734,332.73 780.806,333.232 781.347,333.988 781.418,334.67 781.668,335.101 782.245,335.282 782.28,336.431 783.575,337.761 784.581,337.835 785.084,338.59 785.228,339.344 785.802,339.884 786.558,339.668 786.918,339.956 786.99,340.421 788.212,340.962 788.894,341.896 788.931,342.94 788.573,343.622 789.038,344.88 791.95,347.9 793.568,349.158 795.402,349.337 796.228,349.77 796.84,350.02 797.162,350.416 797.199,351.71 798.35,353.652 798.601,354.767 799.896,356.06 799.933,357.068 799.861,358.074 800.47,359.439 800.614,363.826 800.759,364.22 801.44,364.437 802.269,366.486 802.412,367.348 803.095,367.673 803.058,367.996 802.734,368.606 804.066,369.936 804.676,370.008 805.217,370.656 805.217,371.698 804.748,372.344 804.82,373.89 805.288,374.178 805.36,374.646 804.928,375.15 805.755,375.832 805.792,376.516 806.402,376.729 806.546,377.701 807.949,378.384 808.666,377.88 809.78,377.88 810.284,378.275 811.758,378.492 812.297,378.924 813.376,380.973 813.341,382.232 816.648,384.244 818.121,384.207 818.84,384.997 818.444,387.012 817.15,387.696 816.934,388.379 816.432,388.81 816.466,389.816 816.073,390.572 816.073,391.002 816.754,391.578 816.18,392.26 816.863,392.836 816.72,394.022 817.691,395.424 817.724,396.468 818.228,397.005 817.978,398.156 817.51,399.02 817.547,399.45 818.552,399.486 819.2,400.527 819.342,402.182 818.912,402.794 818.912,403.225 819.342,403.692 819.342,404.376 819.633,405.166 819.272,405.886 819.308,406.784 818.588,407.468 819.38,410.02 818.733,411.638 819.092,412.572 819.739,412.5 819.811,413.363 819.666,413.938 818.409,414.909 818.516,415.448 819.128,415.556 819.99,416.921 819.56,417.64 819.524,419.654 820.062,420.768 819.918,421.773 819.414,422.53 819.56,423.428 820.458,424.29 820.53,424.866 821.176,425.765 821.032,426.844 820.639,427.49 820.567,428.459 819.38,429.576 819.165,430.582 819.342,431.338 818.481,433.242 817.51,434.788 816.324,435.831 816.144,437.233 815.066,439.57 813.986,443.272 814.527,444.062 814.202,445.07 814.058,446.4 815.066,448.304 814.814,449.06 815.857,451.36 816.036,453.338 815.355,453.77 815.496,454.74 817.042,455.315 818.552,455.746 820.027,456.466 821.392,456.644 821.897,457.975 822.866,458.837 823.55,459.844 824.34,460.132 824.593,460.636 824.701,461.642 825.598,462.936 826.751,463.477 827.9,465.058 829.195,465.775 831.062,468.041 831.387,469.228 832.034,469.48 834.944,469.55 837.03,470.162 838.397,470.952 839.438,470.63 839.978,471.24 840.84,471.277 841.237,471.78 841.308,473.038 842.098,474.835 843.393,475.59 845.154,477.496 847.994,481.81 848.93,482.672 851.123,483.39 851.951,483.93 852.596,485.151 853.567,487.166 856.156,489.97 856.404,493.852 857.525,497.77 857.266,502.048 "
   id="polygon12"
   class="area"
    />

   <!-- Приокский -->
   <polygon
   transform="translate(-0.11325964,-14.077617)"
   id="polygon14"
   points="790.008,513.696 792.31,510.351 794.142,509.13 794.395,507.872 795.114,507.586 797.055,504.531 797.343,503.81 799.068,502.264 800.326,500.36 800.578,499.784 801.01,499.46 801.082,498.742 801.513,498.31 801.297,497.484 799.357,497.412 798.96,498.094 798.312,498.058 798.062,497.915 796.804,498.92 795.295,499.063 794.827,499.316 793.425,498.742 790.44,498.561 789.147,499.028 787.888,499.244 784.653,500.827 783.035,502.011 763.982,486.016 757.404,479.831 760.279,476.058 764.592,472.068 764.342,457.796 762.004,458.156 758.41,459.306 756.18,461.032 755.138,461.39 750.825,464.914 748.596,466.1 744.21,470.341 743.241,470.666 741.982,470.738 740.867,471.492 737.02,472.033 729.615,471.817 728.788,471.348 728.142,470.234 727.171,470.487 726.992,468.868 726.381,467.97 725.444,467.718 725.372,466.962 724.654,466.568 724.33,465.381 723.396,464.518 721.132,463.261 720.232,461.246 720.413,460.132 720.269,455.889 719.406,453.626 718.327,451.9 717.392,450.965 717.321,450.14 716.098,448.952 719.62,441.905 700.677,438.994 701.109,431.804 696.831,431.624 693.81,431.014 692.553,430.87 690.179,431.267 687.266,432.884 686.188,433.206 685.756,433.242 684.893,432.488 684.284,432.344 683.888,432.74 684.321,433.565 685.398,434.86 685.506,435.939 686.836,438.096 686.657,438.312 686.08,438.24 685.938,438.528 686.584,439.102 686.548,439.282 685.684,439.391 685.506,439.892 685.72,440.791 686.404,441.332 685.684,443.092 675.254,443.066 677.196,457.096 677.196,467.816 676.838,471.628 675.759,479.326 674.68,493.571 670.146,506.306 664.175,515.226 658.276,520.19 653.168,524.724 645.612,531.918 639.958,538.25 633.238,545.66 621.152,561.846 619.496,564.004 612.662,571.272 596.878,586.432 581.038,600.872 585.998,607.236 576.904,614.82 575.177,623.448 580.966,627.258 583.232,623.124 582.476,622.443 581.324,623.124 579.673,621.29 581.361,616.617 582.332,617.768 583.196,617.552 583.59,616.042 586.18,614.999 590.384,615.145 594.232,609.07 598.472,616.294 599.48,614.999 598.58,612.772 599.697,612.016 602.284,611.586 606.489,611.586 606.85,610.146 608.646,610.256 609.69,608.566 611.162,611.764 611.99,611.8 613.787,616.33 612.638,618.702 612.243,623.268 609.546,622.443 609.078,624.922 606.993,625.928 606.921,629.416 614.435,629.272 620.871,627.115 621.84,627.115 618.508,640.267 615.406,653.644 615.117,659.504 615.728,661.446 620.222,667.198 622.127,669.246 624.86,671.691 632.372,676.688 634.423,676.904 637.873,667.988 639.994,673.166 656.242,673.74 660.451,671.62 657.214,666.445 657.286,661.914 660.916,655.838 667.353,649.547 671.234,647.354 675.153,645.988 681.766,644.228 684.57,637.002 690.322,640.304 691.258,639.59 702.762,630.028 698.233,624.634 700.46,620.752 700.388,617.768 697.19,614.571 704.954,602.023 708.047,597.887 711.244,594.402 715.63,591.779 723.036,589.583 723.001,584.444 726.056,584.156 739.538,585.883 741.838,585.378 743.454,586.026 745.002,587.284 745.504,588.722 745.973,589.371 746.799,589.799 748.056,590.015 758.554,589.656 762.076,590.447 764.306,591.238 766.822,591.238 767.219,591.814 768.837,592.821 772.034,592.856 775.198,591.022 777.321,588.398 778.72,588.326 781.957,589.799 783.791,588.65 791.554,587.965 793.028,587.32 795.079,585.737 795.976,585.667 799.321,582.789 800.686,582.573 800.686,580.418 802.447,580.094 803.274,579.446 803.095,578.8 803.957,578.441 807.121,579.197 807.876,578.116 808.918,570.997 804.964,570.424 796.804,567.763 791.41,566.9 789.903,565.75 789.147,565.822 789.002,564.456 789.218,562.516 772.718,558.056 774.121,553.06 774.838,552.988 775.844,554.571 776.781,554.678 778.218,556.152 778.254,556.691 779.26,557.735 780.878,558.488 782.963,558.668 783.466,558.274 784.079,558.416 784.796,557.878 786.523,558.38 787.636,557.77 789.506,558.202 790.008,558.884 790.765,558.525 791.879,557.301 793.928,559.065 794.323,559.028 794.755,558.596 795.114,557.806 795.221,556.402 794.827,548.064 792.812,544.216 792.203,544.144 789.399,547.2 787.456,547.452 786.99,542.995 787.279,536.379 783.826,531.814 784.466,531.86 782.496,527.788 780.627,525.702 778.254,521.784 783.503,519.16 785.625,516.788 "
   class="area"
   />

   <!-- Ленинский -->
   <polygon
   transform="translate(-0.11325964,-14.077617)"
   id="polygon16"
   points="518.485,454.92 519.278,455.386 544.478,437.556 562.056,441.044 568.946,459.872 572.374,468.329 572.302,469.12 582.908,496.908 587.15,506.542 587.22,507.26 588.587,508.304 594.52,517.002 595.346,518.764 608.502,537.35 621.876,527.896 623.242,528.794 624.212,528.974 626.118,530.052 627.267,530.304 634.134,534.15 639.958,538.25 645.612,531.918 653.168,524.724 658.276,520.19 664.175,515.226 670.146,506.306 674.68,493.571 675.759,479.326 676.838,471.628 677.196,467.816 677.196,457.096 675.254,443.066 673.312,425.224 673.023,415.942 673.21,391.842 673.312,378.748 656.332,378.674 655.882,379.463 652.613,379.463 652.289,379.822 651.534,379.822 651.283,378.744 650.6,378.744 650.709,367.132 650.204,363.932 648.802,360.554 647.184,362.064 645.026,361.848 643.912,368.354 635.897,367.023 635.645,368.174 631.978,369.326 637.153,385.97 632.05,399.234 627.952,399.883 624.752,399.846 623.134,399.343 621.408,398.407 619.862,397.186 605.52,380.973 603.759,379.605 602.248,379.14 590.78,376.657 588.515,375.796 587.078,374.646 584.383,372.058 564.968,385.216 554.938,392.37 553.141,393.77 547.066,399.198 539.948,405.92 533.511,412.859 527.113,421.128 524.346,424.076 518.02,429.864 488.814,450.749 499.639,466.16 506.58,461.015 515.178,455.439 516.257,455.011 517.228,454.92 "
   class="area"
   />

   <!-- Автозаводский -->
   <polygon
   transform="translate(-0.11325964,-14.077617)"
   id="polygon18"
   points="354.884,489.863 360.6,489.217 361.21,489.358 361.605,489.826 363.548,494.392 352.762,495.074 349.634,511.179 342.229,511.179 342.194,510.244 336.981,510.211 337.772,525.237 336.298,525.56 336.261,526.35 329.791,527.429 329.791,529.226 329.396,529.478 330.222,533.719 330.618,539.722 330.474,540.622 331.266,541.27 331.408,542.528 331.05,543.534 330.258,543.714 330.114,544.288 329.575,544.829 330.402,548.674 330.51,550.256 329.934,550.509 329.934,551.37 330.365,551.982 329.612,553.06 328.963,554.067 328.963,554.966 328.066,555.792 327.417,557.986 326.303,558.848 325.406,560.609 324.757,560.826 324.292,561.616 323.32,561.724 322.53,562.084 322.53,562.803 319.222,566.11 318.502,566.398 317.315,567.621 319.796,570.172 317.066,573.729 312.104,576.93 315.268,581.891 298.12,588.682 300.35,591.056 297.904,594.006 295.962,593.646 294.136,591.521 293.947,589.329 290.782,589.258 290.996,592.065 287.543,593.79 288.336,597.532 286.968,606.668 286.106,608.323 284.666,616.309 286.896,616.238 289.63,614.941 291.428,622.424 277.04,673.72 275.456,677.462 273.73,687.174 298.911,695.664 362.254,712.779 366.35,713.176 404.384,712.062 439.148,698.33 441.124,697.36 442.742,696.244 445.438,694.231 452.987,687.114 459.926,680.141 471.789,669.967 479.914,665.04 488.972,658.354 496.342,653.251 504.719,646.85 529.417,632.758 547.534,621.758 559.828,614.676 571.296,607.63 581.038,600.872 596.878,586.432 612.662,571.272 619.496,564.004 621.152,561.846 633.238,545.66 639.958,538.25 634.134,534.15 627.267,530.304 626.118,530.052 624.212,528.974 623.242,528.794 621.876,527.896 608.502,537.35 595.346,518.764 594.52,517.002 588.587,508.304 587.22,507.26 587.15,506.542 582.908,496.908 572.302,469.12 572.374,468.329 568.946,459.872 562.056,441.044 544.478,437.556 519.278,455.386 518.485,454.92 517.228,454.92 516.257,455.011 515.178,455.439 506.58,461.015 499.639,466.16 488.814,450.749 460.466,471.024 455.038,474.332 449.896,477.962 444.756,479.796 436.343,480.55 426.062,480.228 423.834,480.661 418.19,482.026 408.124,483.068 408.016,477.567 404.133,476.058 398.237,473.218 384.792,467.86 387.884,459.664 372.065,454.559 363.561,452.424 345.968,454.884 333.134,469.228 327.238,482.924 327.024,489.394 354.74,486.341 "
   class="area"
    />

   <!-- Канавинский -->
   <polygon
   transform="translate(-0.11325964,-14.077617)"
   id="polygon20"
   points="675.471,340.688 674.536,346.588 673.456,361.264 673.312,378.748 656.332,378.674 655.882,379.463 652.613,379.463 652.289,379.822 651.534,379.822 651.283,378.744 650.6,378.744 650.709,367.132 650.204,363.932 648.802,360.554 647.184,362.064 645.026,361.848 643.912,368.354 635.897,367.023 635.645,368.174 631.978,369.326 637.153,385.97 632.05,399.234 627.952,399.883 624.752,399.846 623.134,399.343 621.408,398.407 619.862,397.186 605.52,380.973 603.759,379.605 602.248,379.14 590.78,376.657 588.515,375.796 587.078,374.646 584.383,372.058 564.968,385.216 554.938,392.37 553.141,393.77 547.066,399.198 539.948,405.92 533.511,412.859 527.113,421.128 524.346,424.076 518.02,429.864 488.814,450.749 460.466,471.024 455.038,474.332 449.896,477.962 444.756,479.796 436.343,480.55 426.062,480.228 423.834,480.661 418.19,482.026 408.124,483.068 408.016,477.567 404.133,476.058 398.237,473.218 384.792,467.86 387.884,459.664 372.065,454.559 363.561,452.424 374.762,450.858 367.178,419.762 367.333,413.927 363.296,404.77 360.742,393.806 357.938,379.212 357.436,375.042 355.711,370.152 348.485,370.296 347.478,370.621 343.92,373.746 339.138,374.934 329.54,380.686 328.21,378.456 328.354,376.155 328.172,375.22 327.526,374.537 325.583,373.496 324.685,372.704 324.004,371.589 323.572,369.9 328.856,369.578 329.36,367.564 344.53,367.276 344.889,368.678 348.162,368.498 348.844,366.952 352.224,364.904 354.164,364.688 355.209,361.992 383.142,360.362 419.833,357.88 480.056,353.85 581.939,346.751 584.021,346.282 623.31,332.918 617.41,294.644 617.051,292.844 614.75,286.37 610.839,280.495 609.367,277.368 608.682,275.103 607.965,272.228 607.676,250.875 607.965,248.752 612.026,237.644 606.707,235.236 604.764,234.659 601.924,234.085 599.784,233.132 613.741,217.302 615.108,216.153 609.355,202.627 618.562,199.101 623.167,208.31 623.237,210.756 628.419,215.288 629.21,220.755 626.62,223.347 623.742,223.201 620.36,241.403 643.095,250.109 657.7,253.708 661.873,255.722 675.83,265.506 692.306,277.951 693.888,279.75 699.284,283.06 703.456,284.932 708.206,286.01 712.81,286.441 720.552,286.38 698.565,301.478 692.162,307.234 688.204,312.125 684.249,318.962 677.988,331.91 "
   class="area"
   />

  <!-- Московский-->
   <polygon
   transform="translate(-0.11325964,-14.077617)"
   id="polygon22"
   points="607.676,250.875 607.965,272.228 608.682,275.103 609.367,277.368 610.839,280.495 614.75,286.37 617.051,292.844 617.41,294.644 623.31,332.918 584.021,346.282 581.939,346.751 480.056,353.85 419.833,357.88 383.142,360.362 355.209,361.992 354.164,364.688 352.224,364.904 348.844,366.952 348.162,368.498 344.889,368.678 344.53,367.276 329.36,367.564 328.856,369.578 323.572,369.9 323.32,367.852 323.895,364.616 339.102,363.789 339.066,360.05 304.807,361.127 281.223,361.561 257.462,345.923 242.184,352.574 229.962,354.084 212.021,357.893 212.849,360.05 202.172,362.961 154.074,362.926 155.835,305.372 25.4315,303.597 25.0016,225.221 231.786,225.298 200.994,303.059 188.476,342.486 267.688,342.2 274.089,345.832 286.68,341.553 288.846,344.88 344.866,344.574 382.87,322.846 384.884,319.175 387.044,311.694 387.907,310.688 414.166,290.112 417.763,291.694 420.283,286.514 421.864,287.52 421.362,288.457 424.454,289.68 424.454,291.262 447.55,291.262 458.054,280.109 461.074,277.81 467.909,277.52 468.772,276.586 469.78,276.586 471.65,274.499 472.01,273.277 473.594,271.045 473.954,269.462 481.207,284.198 484.513,282.616 485.918,279.776 488.719,278.518 493.18,287.398 494.762,289.555 496.45,291.064 499.65,292.646 514.568,298.938 521.005,294.946 521.04,291.89 521.614,291.676 522.872,290.49 522.944,289.734 524.202,288.764 527.043,287.577 526.97,285.026 527.402,283.373 533.118,265.758 533.98,264.209 553.466,286.644 556.235,278.34 557.922,262.52 563.674,264.14 573.956,267.913 577.802,256.05 580.105,249.399 581.612,248.106 580.534,245.23 580.966,239.586 581.361,239.155 582.225,239.046 583.302,238.256 583.986,237.142 587.462,227.104 594.676,230.9 599.784,233.132 601.924,234.085 604.764,234.659 606.707,235.236 612.026,237.644 607.965,248.752 "
   class="area"
   />

<!--  Сормовский -->  
   <polygon
   transform="translate(-0.11325964,-14.077617)"
   id="polygon24"
   points="553.092,201.116 547.985,182.842 545.537,174.497 541.367,164.928 537.624,156.582 535.466,152.049 522.804,128.668 519.71,123.128 514.53,116.366 494.654,96.3119 491.866,92.9115 487.838,86.0044 485.248,80.1036 481.796,75.2847 475.536,68.3056 467.981,61.3997 461.433,56.9386 458.412,55.7871 455.68,55.2119 449.132,52.0465 442.154,49.4563 433.448,47.2985 427.043,46.7221 422.152,46.578 413.736,47.0103 408.483,47.5867 399.346,49.3111 395.103,51.039 395.318,57.5859 402.942,64.4209 404.958,67.9465 408.772,71.0398 410.282,72.9095 412.44,74.8536 414.166,78.5221 416.932,82.2012 423.726,88.2048 424.985,90.0024 426.529,91.6926 430.016,94.6406 428.58,96.5812 425.272,95.1072 425.164,93.3461 422.934,92.0883 420.922,91.8709 418.118,92.1249 415.566,91.2603 412.046,92.5855 407.008,97.0477 392.902,100.214 367.426,102.517 357.076,101.867 347.73,101.399 343.244,101.653 337.917,101.941 317.481,119.646 304.811,174.628 317.984,225.33 231.786,225.298 200.994,303.059 188.476,342.486 267.688,342.2 274.089,345.832 286.68,341.553 288.846,344.88 344.866,344.574 382.87,322.846 384.884,319.175 387.044,311.694 387.907,310.688 414.166,290.112 417.763,291.694 420.283,286.514 421.864,287.52 421.362,288.457 424.454,289.68 424.454,291.262 447.55,291.262 458.054,280.109 461.074,277.81 467.909,277.52 468.772,276.586 469.78,276.586 471.65,274.499 472.01,273.277 473.594,271.045 473.954,269.462 481.207,284.198 484.513,282.616 485.918,279.776 488.719,278.518 493.18,287.398 494.762,289.555 496.45,291.064 499.65,292.646 514.568,298.938 521.005,294.946 521.04,291.89 521.614,291.676 522.872,290.49 522.944,289.734 524.202,288.764 527.043,287.577 526.97,285.026 527.402,283.373 533.118,265.758 533.98,264.209 553.466,286.644 556.235,278.34 557.922,262.52 563.674,264.14 573.956,267.913 577.802,256.05 580.105,249.399 581.612,248.106 580.534,245.23 580.966,239.586 581.361,239.155 582.225,239.046 583.302,238.256 583.986,237.142 587.462,227.104 578.992,225.144 566.259,219.39 563.308,217.734 559.208,213.562 555.25,206.943 "
   class="area"
   />
   <!-- Нижегородский -->
   <g id="_129932168">
   <polygon 
    id="_130264864" 
    class="area" 
    points="673.21,391.842 673.312,378.748 673.456,361.264 674.536,346.588 675.471,340.688 677.988,331.91 684.249,318.962 688.204,312.125 692.162,307.234 698.565,301.478 720.552,286.38 721.946,286.37 729.07,284.716 736.048,282.486 744.896,281.478 754.682,281.19 765.186,283.132 772.668,283.852 782.669,283.996 791.447,282.916 799.575,282.342 803.029,281.838 837.814,281.01 841.879,281.622 847.778,282.916 860.514,290.04 865.55,293.996 873.105,303.205 875.551,309.248 881.661,326.516 918.139,393.352 907.994,402.56 903.892,404.502 904.901,406.446 893.678,407.239 894.112,413.57 890.515,413.64 890.311,411.71 888.797,411.675 888.618,410.308 887.464,410.308 887.464,408.546 885.738,408.618 883.908,410.272 880.063,409.911 880.028,414.082 878.045,413.758 875.097,414.979 874.559,418.432 873.021,418.396 872.258,422.494 872.258,429.503 872.618,429.684 873.122,429.216 874.455,429.18 875.421,427.957 876.969,427.994 877.078,427.31 877.507,427.31 878.514,428.174 879.198,427.453 880.567,427.706 882.112,428.531 883.045,428.64 883.293,429 882.036,429.684 882.832,433.134 883.438,433.422 884.337,433.422 884.626,433.674 884.481,434.428 882.686,436.262 882.686,447.37 883.652,449.06 883.472,449.707 880.533,451.216 879.806,451.18 879.131,449.85 867.728,437.053 856.404,441.044 861.157,455.136 862.233,459.628 862.951,462.433 863.678,463.858 866.703,466.665 870.439,471.485 866.055,474.506 864.25,474.506 861.088,476.304 862.164,481.7 855.618,483.068 853.319,482.635 852.812,482.635 852.668,483.068 853.639,484.254 852.596,485.151 851.951,483.93 851.123,483.39 848.93,482.672 847.994,481.81 845.154,477.496 843.393,475.59 842.098,474.835 841.308,473.038 841.237,471.78 840.84,471.277 839.978,471.24 839.438,470.63 838.397,470.952 837.03,470.162 834.944,469.55 832.034,469.48 831.387,469.228 831.062,468.041 829.195,465.775 827.9,465.058 826.751,463.477 825.598,462.936 824.701,461.642 824.593,460.636 824.34,460.132 823.55,459.844 822.866,458.837 821.897,457.975 821.392,456.644 820.027,456.466 818.552,455.746 817.042,455.315 815.496,454.74 815.355,453.77 816.036,453.338 815.857,451.36 814.814,449.06 815.066,448.304 814.058,446.4 814.202,445.07 814.527,444.062 813.986,443.272 815.066,439.57 816.144,437.233 816.324,435.831 817.51,434.788 818.481,433.242 819.342,431.338 819.165,430.582 819.38,429.576 820.567,428.459 820.639,427.49 821.032,426.844 821.176,425.765 820.53,424.866 820.458,424.29 819.56,423.428 819.414,422.53 819.918,421.773 820.062,420.768 819.524,419.654 819.56,417.64 819.99,416.921 819.128,415.556 818.516,415.448 818.409,414.909 819.666,413.938 819.811,413.363 819.739,412.5 819.092,412.572 818.733,411.638 819.38,410.02 818.588,407.468 819.308,406.784 819.272,405.886 819.633,405.166 819.342,404.376 819.342,403.692 818.912,403.225 818.912,402.794 819.342,402.182 819.2,400.527 818.552,399.486 817.547,399.45 817.51,399.02 817.978,398.156 818.228,397.005 817.724,396.468 817.691,395.424 816.72,394.022 816.863,392.836 816.18,392.26 816.754,391.578 816.073,391.002 816.073,390.572 816.466,389.816 816.432,388.81 816.934,388.379 817.15,387.696 818.444,387.012 818.84,384.997 818.121,384.207 816.648,384.244 813.341,382.232 813.376,380.973 812.297,378.924 811.758,378.492 810.284,378.275 809.78,377.88 808.666,377.88 807.949,378.384 806.546,377.701 806.402,376.729 805.792,376.516 805.755,375.832 804.928,375.15 805.36,374.646 805.288,374.178 804.82,373.89 804.748,372.344 805.217,371.698 805.217,370.656 804.676,370.008 804.066,369.936 802.734,368.606 803.058,367.996 803.095,367.673 802.412,367.348 802.269,366.486 801.44,364.437 800.759,364.22 800.614,363.826 800.47,359.439 799.861,358.074 799.933,357.068 799.896,356.06 798.601,354.767 798.35,353.652 797.199,351.71 797.162,350.416 796.84,350.02 796.228,349.77 795.402,349.337 793.568,349.158 791.95,347.9 789.038,344.88 788.573,343.622 788.931,342.94 788.894,341.896 788.212,340.962 786.99,340.421 786.918,339.956 786.558,339.668 785.802,339.884 785.228,339.344 785.084,338.59 784.581,337.835 783.575,337.761 782.28,336.431 782.245,335.282 781.668,335.101 781.418,334.67 781.347,333.988 780.806,333.232 780.734,332.73 779.872,331.507 778.47,332.658 776.384,334.06 768.332,337.582 753.162,345.635 729.687,360.159 712.36,366.558 695.787,362.64 693.162,362.674 693.162,357.068 691.186,356.6 688.524,355.628 684.893,355.7 684.534,356.348 684.249,362.459 683.816,363.574 683.6,365.228 683.816,368.21 684.14,370.152 683.564,370.69 683.312,371.554 683.528,374.934 682.808,376.23 682.45,376.948 682.163,391.842 "/>
   <polygon 
    id="_130050312" 
    class="area" 
    points="690.322,640.304 691.58,641.027 691.042,642.715 690.573,642.825 689.782,643.759 691.186,644.442 691.832,645.199 691.868,646.06 691.223,646.744 689.926,646.672 688.743,647.643 688.743,648.399 689.173,649.008 689.028,652.1 688.668,652.64 687.987,652.926 687.16,652.998 685.002,654.256 682.414,655.334 677.992,660.368 675.943,663.89 675.582,668.6 676.374,672.016 676.411,673.131 675.837,674.748 676.123,676.114 676.986,676.403 677.776,678.449 678.064,676.904 678.854,676.688 681.586,676.653 683.888,676.256 685.867,677.012 687.662,679.6 691.006,682.08 691.15,682.908 690.647,683.698 690.214,683.842 690.142,684.526 687.914,687.51 686.295,688.909 685.72,691.032 686.548,693.837 687.197,697.682 689.208,699.48 689.389,701.566 690.97,704.154 693.774,706.346 695.354,709.726 695.392,712.351 696.146,717.419 697.19,721.049 698.016,725.436 699.094,728.096 698.088,732.804 698.662,738.953 698.484,740.858 697.405,747.148 697.368,748.442 697.512,749.808 698.196,751.068 699.85,751.068 700.028,752.469 700.964,753.116 701.251,753.942 700.496,754.302 700.316,755.202 699.813,755.668 698.95,755.597 698.412,755.991 696.938,755.813 695.14,758.868 694.384,762.068 694.095,764.441 697.296,766.776 704.162,769.975 705.384,768.142 710.779,770.623 713.15,770.549 716.135,768.069 717.177,767.998 719.19,769.544 719.19,770.48 719.298,770.658 720.304,770.623 721.527,772.06 723.72,768.142 725.877,768.503 725.516,772.132 730.802,772.564 736.408,774.146 739.071,774.146 741.262,773.606 742.737,772.781 743.025,774.615 743.454,775.366 743.132,775.657 739.968,774.974 739.034,775.366 739.106,775.948 740.436,776.947 741.37,777.093 743.06,778.494 743.993,778.606 745.469,779.324 745.323,779.75 743.706,779.47 744.498,780.76 745.792,780.87 746.618,781.374 746.582,782.373 747.482,783.853 749.28,783.888 748.488,785.29 748.417,787.051 752.226,788.35 753.844,789.572 753.881,789.964 754.529,790.538 754.382,793.34 755.39,794.562 755.786,794.562 759.2,792.656 760.746,792.478 760.89,792.409 759.238,791.546 759.381,789.136 761.142,789.212 762.581,791.512 764.845,790.538 766.138,789.392 766.103,788.205 763.874,786.982 763.874,786.042 764.952,784.964 766.895,784.358 767.684,782.238 769.59,782.238 771.388,784.573 775.916,783.922 778.792,781.23 779.908,781.332 779.801,783.279 778.507,784.323 778.507,785.904 779.801,787.374 780.591,787.23 781.202,786.152 782.352,784.896 783.322,785.434 782.424,788.418 784.977,788.205 788.5,789.068 790.296,787.666 791.375,788.809 791.842,788.562 793.821,776.701 802.447,779.614 807.05,779.794 808.201,780.042 809.242,780.581 810.967,782.339 813.986,784.068 815.568,784.032 817.978,785.58 818.768,785.683 820.855,785.546 822.113,785.614 828.474,787.196 829.697,787.306 834.406,786.904 836.061,789.819 838.864,790.289 843.824,790.614 845.91,787.914 849.793,786.656 854.071,786.836 864.566,788.528 866.473,783.742 869.277,784.46 872.514,784.716 875.138,783.956 878.84,784.64 882.935,784.964 884.917,784.64 893.292,782.666 895.515,785.973 899.148,786.119 900.266,785.794 902.532,784.136 904.472,785.076 908.242,785.144 908.208,786.008 910.112,786.366 910.977,785.546 913.172,784.881 915.515,785.486 916.772,786.46 919.507,785.306 925.404,787.246 930.942,788.186 933.318,787.538 936.916,787.246 943.968,785.017 949.582,790.058 955.909,789.768 970.686,783.171 974.678,757.897 974.935,755.597 975.002,754.158 973.781,746.502 973.634,745.136 973.781,743.95 974.104,742.729 939.849,725.291 935.857,722.451 935.352,722.379 932.583,720.33 932.583,719.972 924.318,713.932 915.472,707.712 914.285,706.706 913.925,706.778 909.431,703.47 909.465,703.074 905.225,700.198 899.326,700.414 899.078,697.286 899.977,697.25 899.977,696.676 897.712,695.92 894.728,695.742 891.387,695.886 889.515,696.244 884.378,697.862 878.37,699.984 875.822,700.81 875.78,701.314 867.909,706.346 866.473,707.533 857.984,710.119 857.559,709.545 857.198,707.21 856.626,705.341 852.056,704.908 848.211,704.404 844.256,704.37 843.142,705.448 840.05,706.346 837.425,706.346 835.952,706.274 832.824,705.519 830.848,706.202 829.516,706.418 828.258,707.21 825.167,703.074 822.722,701.278 822.581,699.912 816.073,702.536 815.462,700.917 814.706,696.676 811.398,695.13 817.294,691.176 813.809,688.372 813.7,687.76 808.486,684.057 808.273,684.057 799.75,678.882 800.219,678.126 788.608,669.967 786.307,668.743 784.112,667.952 781.524,667.738 778.29,667.775 776.96,668.098 774.082,669.321 769.662,671.62 769.879,672.554 767.29,673.058 766.75,672.806 762.364,675.035 759.849,676.688 762.976,679.744 759.596,682.188 756.937,680.462 754.672,681.72 755.39,682.98 755.606,684.778 756.255,685.64 756.255,687.042 755.931,687.367 756.071,688.408 756.973,690.134 757.477,692.11 758.734,693.728 758.95,695.167 759.381,695.67 758.912,696.244 758.554,698.041 757.87,698.76 756.829,699.083 756.901,700.775 755.931,701.242 754.636,703.29 754.6,704.692 753.451,704.692 752.226,706.309 750.322,708.143 748.633,710.264 747.266,711.128 746.116,712.674 745.901,714.112 742.268,713.5 741.119,714.686 738.387,713.141 736.158,719.396 733.607,722.379 733.57,724.608 730.262,725.685 731.52,729.786 728.932,730.972 728.536,729.534 727.566,729.677 727.495,730.36 726.488,730.36 726.416,731.187 725.553,731.258 723.361,729.246 721.31,729.21 721.06,727.16 719.839,724.178 710.634,727.519 711.676,733.416 708.836,734.098 708.584,737.082 708.404,738.27 707.758,739.42 707.182,739.994 706.356,740.21 702.366,742.152 701.79,744.989 699.13,747.184 700.208,742.51 700.424,738.126 699.956,732.517 700.893,727.844 699.203,724.178 698.806,721.516 697.98,718.57 697.621,715.803 696.65,714.434 696.506,709.942 694.564,705.986 691.832,703.614 690.61,701.852 689.568,699.12 687.771,697.072 687.771,693.332 690.036,692.686 689.892,690.889 690.286,688.985 691.832,686.144 692.208,682.766 692.013,680.499 687.841,675.429 684.534,674.028 683.277,673.883 679.61,673.92 679.718,672.662 682.99,672.95 685.29,673.454 688.166,675.07 690.682,677.768 691.58,677.802 692.48,676.977 693.521,676.114 694.492,674.136 694.17,670.686 695.069,669.678 696.038,669.498 697.692,667.378 699.382,667.162 699.491,666.012 697.405,662.31 696.11,659.073 695.93,656.306 695.354,653.214 694.528,652.136 694.96,651.38 694.744,644.118 693.378,642.429 692.66,640.452 691.258,639.59 "/>
  </g>
 </svg>